<?xml version="1.0" encoding="utf-8"?>
<!-- Generator: Adobe Illustrator 27.5.0, SVG Export Plug-In . SVG Version: 6.00 Build 0)  -->
<svg version="1.1" xmlns="http://www.w3.org/2000/svg" xmlns:xlink="http://www.w3.org/1999/xlink" x="0px" y="0px"
	 viewBox="0 0 500 500" style="enable-background:new 0 0 500 500;" xml:space="preserve">
<g id="BACKGROUND">
	<rect style="fill:#FFC200;" width="500" height="500"/>
	<g>
		<g>
			<path style="opacity:0.15;fill-rule:evenodd;clip-rule:evenodd;fill:#231F20;" d="M446.995,122.763
				c14.87,0,26.997-12.127,26.997-26.997c0-14.869-12.127-26.997-26.997-26.997c-14.869,0-26.998,12.128-26.998,26.997
				C419.997,110.636,432.126,122.763,446.995,122.763z"/>
			<path style="fill-rule:evenodd;clip-rule:evenodd;fill:#EFBF60;" d="M444.864,119.33c14.869,0,26.996-12.127,26.996-26.997
				c0-14.869-12.127-26.997-26.996-26.997c-14.87,0-26.998,12.128-26.998,26.997C417.866,107.203,429.994,119.33,444.864,119.33z"/>
			<path style="fill-rule:evenodd;clip-rule:evenodd;fill:#FFD55F;" d="M444.864,113.15c11.464,0,20.815-9.351,20.815-20.816
				c0-11.464-9.351-20.816-20.815-20.816c-11.465,0-20.816,9.351-20.816,20.816C424.048,103.799,433.399,113.15,444.864,113.15z"/>
			<g>
				<rect x="444.208" y="73.841" style="fill-rule:evenodd;clip-rule:evenodd;fill:#EFBF60;" width="1.311" height="4.337"/>
				<rect x="444.208" y="106.488" style="fill-rule:evenodd;clip-rule:evenodd;fill:#EFBF60;" width="1.311" height="4.337"/>
			</g>
			<g>
				<rect x="459.019" y="91.679" style="fill-rule:evenodd;clip-rule:evenodd;fill:#EFBF60;" width="4.337" height="1.311"/>
				<rect x="426.371" y="91.679" style="fill-rule:evenodd;clip-rule:evenodd;fill:#EFBF60;" width="4.337" height="1.311"/>
			</g>
			
				<rect x="440.87" y="85.961" transform="matrix(0.3499 -0.9368 0.9368 0.3499 209.713 475.2512)" style="fill-rule:evenodd;clip-rule:evenodd;fill:#EFBF60;" width="12.825" height="1.127"/>
			
				<rect x="435.818" y="91.746" transform="matrix(0.9997 -0.0234 0.0234 0.9997 -2.0368 10.3232)" style="fill-rule:evenodd;clip-rule:evenodd;fill:#EFBF60;" width="9.689" height="1.125"/>
		</g>
		<rect x="8.271" y="32.528" style="fill-rule:evenodd;clip-rule:evenodd;fill:#FFD55F;" width="483.872" height="15.563"/>
		<rect x="8.271" y="48.09" style="fill-rule:evenodd;clip-rule:evenodd;fill:#EFBF60;" width="483.872" height="5.252"/>
		<g>
			<path style="opacity:0.15;fill-rule:evenodd;clip-rule:evenodd;fill:#231F20;" d="M89.131,71.38H20.518
				c-5.111,0-9.292,4.181-9.292,9.291V95.68c0,5.111,4.181,9.291,9.292,9.291h68.612c5.111,0,9.291-4.18,9.291-9.291V80.671
				C98.422,75.561,94.242,71.38,89.131,71.38z"/>
			<path style="fill-rule:evenodd;clip-rule:evenodd;fill:#EAB659;" d="M89.131,65.084H20.518c-5.111,0-9.292,4.18-9.292,9.291
				v15.009c0,5.111,4.181,9.291,9.292,9.291h68.612c5.111,0,9.291-4.18,9.291-9.291V74.376
				C98.422,69.265,94.242,65.084,89.131,65.084z"/>
			<path style="fill-rule:evenodd;clip-rule:evenodd;fill:#FFD55F;" d="M86.174,65.084H17.562c-5.111,0-9.291,4.18-9.291,9.291
				v15.009c0,5.111,4.18,9.291,9.291,9.291h68.613c5.111,0,9.291-4.18,9.291-9.291V74.376
				C95.466,69.265,91.286,65.084,86.174,65.084z"/>
			<path style="fill-rule:evenodd;clip-rule:evenodd;fill:#FFDC83;" d="M86.174,65.084H17.562c-5.111,0-9.291,4.18-9.291,9.291
				v2.847h87.195v-2.847C95.466,69.265,91.286,65.084,86.174,65.084z"/>
			<rect x="72.288" y="65.084" style="fill-rule:evenodd;clip-rule:evenodd;fill:#EAB659;" width="1.07" height="33.591"/>
			<path style="fill-rule:evenodd;clip-rule:evenodd;fill:#EAB659;" d="M64.719,91.082H16.173c-0.786,0-1.428,0.643-1.428,1.427l0,0
				c0,0.786,0.643,1.429,1.428,1.429h48.546c0.785,0,1.427-0.643,1.427-1.429l0,0C66.146,91.725,65.504,91.082,64.719,91.082
				L64.719,91.082z M64.719,86.62H16.173c-0.786,0-1.428,0.642-1.428,1.427l0,0c0,0.786,0.643,1.428,1.428,1.428h48.546
				c0.785,0,1.427-0.642,1.427-1.428l0,0C66.146,87.262,65.504,86.62,64.719,86.62z"/>
		</g>
		<rect x="110.43" y="65.084" style="fill-rule:evenodd;clip-rule:evenodd;fill:#FFD55F;" width="133.485" height="247.327"/>
		<rect x="116.344" y="72.254" style="fill-rule:evenodd;clip-rule:evenodd;fill:#EFBF60;" width="120.168" height="6.084"/>
		<rect x="116.344" y="84.448" style="fill-rule:evenodd;clip-rule:evenodd;fill:#EFBF60;" width="120.168" height="6.084"/>
		<rect x="116.344" y="96.643" style="fill-rule:evenodd;clip-rule:evenodd;fill:#EFBF60;" width="120.168" height="6.084"/>
		<rect x="116.344" y="108.838" style="fill-rule:evenodd;clip-rule:evenodd;fill:#EFBF60;" width="120.168" height="6.084"/>
		<rect x="116.344" y="121.032" style="fill-rule:evenodd;clip-rule:evenodd;fill:#EFBF60;" width="120.168" height="6.084"/>
		<rect x="136.856" y="148.322" style="fill-rule:evenodd;clip-rule:evenodd;fill:#EAB659;" width="56.517" height="164.089"/>
		<rect x="196.454" y="190.59" style="fill-rule:evenodd;clip-rule:evenodd;fill:#EAB659;" width="47.461" height="121.821"/>
		<rect x="148.431" y="164.212" style="fill-rule:evenodd;clip-rule:evenodd;fill:#FFD55F;" width="10.066" height="22.23"/>
		<rect x="170.147" y="164.212" style="fill-rule:evenodd;clip-rule:evenodd;fill:#FFD55F;" width="10.066" height="22.23"/>
		<rect x="148.431" y="197.297" style="fill-rule:evenodd;clip-rule:evenodd;fill:#FFD55F;" width="10.066" height="22.23"/>
		<rect x="170.147" y="197.297" style="fill-rule:evenodd;clip-rule:evenodd;fill:#FFD55F;" width="10.066" height="22.23"/>
		<rect x="148.431" y="230.367" style="fill-rule:evenodd;clip-rule:evenodd;fill:#FFD55F;" width="10.066" height="22.23"/>
		<rect x="170.147" y="230.367" style="fill-rule:evenodd;clip-rule:evenodd;fill:#FFD55F;" width="10.066" height="22.23"/>
		<rect x="148.431" y="263.436" style="fill-rule:evenodd;clip-rule:evenodd;fill:#FFD55F;" width="10.066" height="22.23"/>
		<rect x="170.147" y="263.436" style="fill-rule:evenodd;clip-rule:evenodd;fill:#FFD55F;" width="10.066" height="22.23"/>
		<rect x="204.216" y="208.412" style="fill-rule:evenodd;clip-rule:evenodd;fill:#FFD55F;" width="35.652" height="8.229"/>
		<rect x="204.216" y="227.206" style="fill-rule:evenodd;clip-rule:evenodd;fill:#FFD55F;" width="35.652" height="8.229"/>
		<rect x="204.216" y="246" style="fill-rule:evenodd;clip-rule:evenodd;fill:#FFD55F;" width="35.652" height="8.229"/>
		<rect x="204.216" y="264.793" style="fill-rule:evenodd;clip-rule:evenodd;fill:#FFD55F;" width="35.652" height="8.229"/>
		<rect x="204.216" y="283.587" style="fill-rule:evenodd;clip-rule:evenodd;fill:#FFD55F;" width="35.652" height="8.229"/>
		<rect x="258.747" y="65.084" style="fill-rule:evenodd;clip-rule:evenodd;fill:#FFD55F;" width="133.485" height="247.327"/>
		<rect x="264.661" y="72.254" style="fill-rule:evenodd;clip-rule:evenodd;fill:#EFBF60;" width="120.168" height="6.084"/>
		<rect x="264.661" y="84.448" style="fill-rule:evenodd;clip-rule:evenodd;fill:#EFBF60;" width="120.168" height="6.084"/>
		<rect x="264.661" y="96.643" style="fill-rule:evenodd;clip-rule:evenodd;fill:#EFBF60;" width="120.168" height="6.084"/>
		<rect x="264.661" y="108.838" style="fill-rule:evenodd;clip-rule:evenodd;fill:#EFBF60;" width="120.168" height="6.084"/>
		<rect x="264.661" y="121.032" style="fill-rule:evenodd;clip-rule:evenodd;fill:#EFBF60;" width="120.168" height="6.084"/>
		<rect x="285.172" y="192.445" style="fill-rule:evenodd;clip-rule:evenodd;fill:#EAB659;" width="56.517" height="119.966"/>
		<rect x="344.771" y="197.297" style="fill-rule:evenodd;clip-rule:evenodd;fill:#EAB659;" width="45.54" height="114.799"/>
		<rect x="296.747" y="164.212" style="fill-rule:evenodd;clip-rule:evenodd;fill:#FFD55F;" width="10.066" height="22.23"/>
		<rect x="318.463" y="164.212" style="fill-rule:evenodd;clip-rule:evenodd;fill:#FFD55F;" width="10.066" height="22.23"/>
		<rect x="298.006" y="204.168" style="fill-rule:evenodd;clip-rule:evenodd;fill:#FFD55F;" width="10.066" height="22.23"/>
		<rect x="319.722" y="204.168" style="fill-rule:evenodd;clip-rule:evenodd;fill:#FFD55F;" width="10.066" height="22.23"/>
		<rect x="298.006" y="237.238" style="fill-rule:evenodd;clip-rule:evenodd;fill:#FFD55F;" width="10.066" height="22.23"/>
		<rect x="319.722" y="237.238" style="fill-rule:evenodd;clip-rule:evenodd;fill:#FFD55F;" width="10.066" height="22.23"/>
		<rect x="298.006" y="270.307" style="fill-rule:evenodd;clip-rule:evenodd;fill:#FFD55F;" width="10.066" height="22.23"/>
		<rect x="319.722" y="270.307" style="fill-rule:evenodd;clip-rule:evenodd;fill:#FFD55F;" width="10.066" height="22.23"/>
		<rect x="352.532" y="208.412" style="fill-rule:evenodd;clip-rule:evenodd;fill:#FFD55F;" width="14.005" height="8.229"/>
		<rect x="352.532" y="227.206" style="fill-rule:evenodd;clip-rule:evenodd;fill:#FFD55F;" width="14.005" height="8.229"/>
		<rect x="352.532" y="246" style="fill-rule:evenodd;clip-rule:evenodd;fill:#FFD55F;" width="14.005" height="8.229"/>
		<rect x="352.532" y="264.793" style="fill-rule:evenodd;clip-rule:evenodd;fill:#FFD55F;" width="14.005" height="8.229"/>
		<rect x="352.532" y="283.587" style="fill-rule:evenodd;clip-rule:evenodd;fill:#FFD55F;" width="14.005" height="8.229"/>
		<rect x="370.824" y="208.412" style="fill-rule:evenodd;clip-rule:evenodd;fill:#FFD55F;" width="14.005" height="8.229"/>
		<rect x="370.824" y="227.206" style="fill-rule:evenodd;clip-rule:evenodd;fill:#FFD55F;" width="14.005" height="8.229"/>
		<rect x="370.824" y="246" style="fill-rule:evenodd;clip-rule:evenodd;fill:#FFD55F;" width="14.005" height="8.229"/>
		<rect x="370.824" y="264.793" style="fill-rule:evenodd;clip-rule:evenodd;fill:#FFD55F;" width="14.005" height="8.229"/>
		<rect x="370.824" y="283.587" style="fill-rule:evenodd;clip-rule:evenodd;fill:#FFD55F;" width="14.005" height="8.229"/>
	</g>
</g>
<g id="OBJECT">
	<path style="fill:#E5AA03;" d="M427.577,453.75H72.423c-5.183,0-9.423-4.24-9.423-9.423l0,0c0-5.183,4.24-9.423,9.423-9.423
		h355.154c5.183,0,9.423,4.241,9.423,9.423l0,0C437,449.51,432.76,453.75,427.577,453.75z"/>
	<g>
		<path style="fill:#58595B;" d="M179.021,340.582L179.021,340.582c-5.981,0-10.875-4.894-10.875-10.875v-12.709
			c0-5.981,4.894-10.875,10.875-10.875l0,0c5.981,0,10.875,4.894,10.875,10.875v12.709
			C189.896,335.688,185.003,340.582,179.021,340.582z"/>
		<g>
			<rect x="182.558" y="357.65" style="fill:#C6C6C6;" width="9.921" height="35.641"/>
			<rect x="179.438" y="384.815" style="fill:#706F6F;" width="16.162" height="29.565"/>
			<g>
				<path style="fill:#575756;" d="M229.454,424.815h-3.548v-5.636c0-2.576-2.096-4.672-4.671-4.672h-66.736
					c-2.575,0-4.671,2.096-4.671,4.672v5.636h-3.548v-5.636c0-4.532,3.688-8.22,8.219-8.22h66.736c4.532,0,8.219,3.688,8.219,8.22
					V424.815z"/>
			</g>
			<g>
				<circle style="fill:#727E84;" cx="147.939" cy="430.087" r="8.273"/>
				<path style="fill:#575756;" d="M157.231,430.087c-0.286-4.89-4.33-8.771-9.292-8.771c-4.962,0-9.006,3.881-9.292,8.771H157.231z
					"/>
			</g>
			<g>
				<circle style="fill:#727E84;" cx="226.648" cy="430.087" r="8.273"/>
				<path style="fill:#575756;" d="M235.94,430.087c-0.286-4.89-4.33-8.771-9.292-8.771c-4.962,0-9.006,3.881-9.292,8.771H235.94z"
					/>
			</g>
			<g>
				<circle style="fill:#727E84;" cx="186.33" cy="430.087" r="8.273"/>
				<path style="fill:#575756;" d="M195.621,430.087c-0.286-4.89-4.33-8.771-9.292-8.771c-4.962,0-9.006,3.881-9.292,8.771H195.621z
					"/>
			</g>
			<rect x="184.792" y="412.409" style="fill:#575756;" width="3.074" height="12.406"/>
		</g>
		<path style="fill:#58595B;" d="M178.607,359.968l18.361,0c2.463,0,4.46-1.997,4.46-4.46v-0.045l-27.281,0v0.045
			C174.147,357.971,176.144,359.968,178.607,359.968z"/>
		<path style="fill:#58595B;" d="M166.114,355.463l43.347,0c3.373,0,6.107-2.734,6.107-6.108v-0.062h-55.562v0.062
			C160.006,352.729,162.741,355.463,166.114,355.463z"/>
		<path style="fill:#FF7F55;" d="M144.634,350.6l117.855,0c3.306,0,5.987-2.68,5.987-5.987v-0.268
			c0-11.333-9.187-13.782-20.52-13.782l-88.788,0c-11.333,0-20.52,2.449-20.52,13.782l19.591,0.268
			C158.238,347.92,141.327,350.6,144.634,350.6z"/>
		<path style="fill:#E25833;" d="M136.821,350.6h40.922c3.306,0,5.987-2.68,5.987-5.987v-0.268c0-11.333-9.187-13.782-20.52-13.782
			h-11.856c-11.333,0-20.52,2.449-20.52,13.782v0.268C130.834,347.92,133.515,350.6,136.821,350.6z"/>
		<g>
			<path style="fill:#FF7F55;" d="M221.416,288.567l-7.622-61.66c-1.86-15.047-14.644-26.348-29.806-26.348l-22.657-2.335
				c-3.931,0-12.976,3.085-16.395,4.443c-12.279,4.877-20.449,17.599-18.717,31.609l6.713,54.309"/>
			<path style="fill:#FF7F55;" d="M132.932,288.585l0.909,7.351c1.86,15.047,14.644,26.348,29.806,26.348h27.964
				c18.048,0,32.02-15.805,29.806-33.717"/>
			<path style="fill:#E25833;" d="M225.778,307.242c-0.546,0.749-1.126,1.473-1.738,2.171c-5.469,6.213-13.501,10.188-22.542,10.188
				h-27.965c-13.868,0-25.738-9.449-29.086-22.578c-0.316-1.228-0.555-2.487-0.714-3.771l-0.892-7.176l-6.738-54.483
				c-1.473-11.936,4.235-22.93,13.547-28.944c4.669-3.012,10.239-4.771,16.263-4.771h27.96c15.167,0,27.95,11.299,29.81,26.35
				l0.499,4.062l7.12,57.597c0.01,0.061,0.02,0.127,0.025,0.188C232.25,293.935,230.059,301.376,225.778,307.242z"/>
		</g>
	</g>
	<g>
		<g>
			<path style="fill:#FFB287;" d="M273.498,430.068L273.498,430.068c-3.198-0.032-5.788-2.675-5.755-5.873l0.13-12.856
				c0.032-3.198,2.675-5.788,5.873-5.755l0,0c3.198,0.032,5.788,2.675,5.755,5.873l-0.13,12.856
				C279.339,427.51,276.696,430.1,273.498,430.068z"/>
			<path style="fill:#EFEFEF;" d="M265.111,419.04l-0.2,19.801l45.917,0.463l0.054-5.386c0.029-2.888-1.804-5.467-4.541-6.389
				l-24.98-8.415L265.111,419.04z"/>
			<path style="fill:#DADADA;" d="M288.1,427.867L288.1,427.867c-0.724-0.247-1.115-1.042-0.868-1.766l1.7-4.986
				c0.247-0.724,1.042-1.115,1.766-0.868l0,0c0.724,0.247,1.115,1.042,0.868,1.766l-1.7,4.986
				C289.619,427.724,288.824,428.114,288.1,427.867z"/>
			<path style="fill:#DADADA;" d="M291.581,429.054L291.581,429.054c-0.724-0.247-1.115-1.042-0.868-1.766l1.7-4.986
				c0.247-0.724,1.042-1.115,1.766-0.868l0,0c0.724,0.247,1.115,1.042,0.868,1.766l-1.7,4.986
				C293.1,428.91,292.305,429.301,291.581,429.054z"/>
			<path style="fill:#DADADA;" d="M295.061,430.241L295.061,430.241c-0.724-0.247-1.115-1.042-0.868-1.766l1.7-4.986
				c0.247-0.724,1.042-1.115,1.766-0.868l0,0c0.724,0.247,1.115,1.042,0.868,1.766l-1.7,4.986
				C296.58,430.098,295.785,430.488,295.061,430.241z"/>
			<path style="fill:#E8E8E8;" d="M310.866,435.469l-0.043,3.84l-45.922-0.466l0.054-4.806
				C277.561,433.375,298.184,432.93,310.866,435.469z"/>
			<path style="fill:#252539;" d="M311.14,441.083l-46.326-0.467c-0.448-0.004-0.811-0.375-0.806-0.823l0.018-1.75
				c0.005-0.448,0.375-0.811,0.823-0.806l46.326,0.467c0.448,0.005,0.811,0.375,0.806,0.823l-0.018,1.75
				C311.959,440.725,311.588,441.088,311.14,441.083z"/>
			<path style="fill:#252539;" d="M284.737,420.259c-1.356,2.191-5.945,3.797-11.391,3.797c-3.233,0-6.151-0.564-8.267-1.475
				l0.033-3.537l16.251,0.076L284.737,420.259z"/>
		</g>
		<g>
			<path style="fill:#FFB287;" d="M250.627,430.068L250.627,430.068c-3.198-0.032-5.788-2.675-5.756-5.873l0.13-12.856
				c0.032-3.198,2.675-5.788,5.873-5.755l0,0c3.198,0.032,5.788,2.675,5.755,5.873l-0.13,12.856
				C256.467,427.51,253.825,430.1,250.627,430.068z"/>
			<path style="fill:#FFFFFF;" d="M242.24,419.04l-0.2,19.801l45.917,0.463l0.054-5.386c0.029-2.888-1.804-5.467-4.541-6.389
				l-24.98-8.415L242.24,419.04z"/>
			<path style="fill:#DADADA;" d="M265.228,427.867L265.228,427.867c-0.724-0.247-1.115-1.042-0.868-1.766l1.7-4.986
				c0.247-0.724,1.042-1.115,1.766-0.868l0,0c0.724,0.247,1.115,1.042,0.868,1.766l-1.7,4.986
				C266.747,427.724,265.953,428.114,265.228,427.867z"/>
			<path style="fill:#DADADA;" d="M268.709,429.054L268.709,429.054c-0.724-0.247-1.115-1.042-0.868-1.766l1.7-4.986
				c0.247-0.724,1.042-1.115,1.766-0.868l0,0c0.724,0.247,1.115,1.042,0.868,1.766l-1.7,4.986
				C270.228,428.91,269.433,429.301,268.709,429.054z"/>
			<path style="fill:#DADADA;" d="M272.189,430.241L272.189,430.241c-0.724-0.247-1.115-1.042-0.868-1.766l1.7-4.986
				c0.247-0.724,1.042-1.115,1.766-0.868l0,0c0.724,0.247,1.115,1.042,0.868,1.766l-1.7,4.986
				C273.709,430.098,272.914,430.488,272.189,430.241z"/>
			<path style="fill:#E8E8E8;" d="M287.994,435.469l-0.043,3.84l-45.922-0.466l0.054-4.806
				C254.689,433.375,275.312,432.93,287.994,435.469z"/>
			<path style="fill:#375888;" d="M288.269,441.083l-46.326-0.467c-0.448-0.004-0.811-0.375-0.806-0.823l0.018-1.75
				c0.005-0.448,0.375-0.811,0.823-0.806l46.326,0.467c0.448,0.005,0.811,0.375,0.806,0.823l-0.018,1.75
				C289.087,440.725,288.717,441.088,288.269,441.083z"/>
			<path style="fill:#31436C;" d="M261.866,420.259c-1.356,2.191-5.945,3.797-11.391,3.797c-3.233,0-6.151-0.564-8.267-1.475
				l0.033-3.537l16.251,0.076L261.866,420.259z"/>
		</g>
		<path style="fill:#252539;" d="M202.734,321.316H179.52c-9.622,0-17.495-7.873-17.495-17.495v-12.968
			c0-9.622,7.873-17.495,17.495-17.495h23.214c9.622,0,17.495,7.873,17.495,17.495v12.968
			C220.229,313.443,212.357,321.316,202.734,321.316z"/>
		<path style="fill:#252539;" d="M183.582,305.673c0,0-3.752,25.147,25.215,27.281s41.724,9.956,41.724,9.956
			s6.748,0.736,6.893,17.787c0,0,2.806,51.406,3.999,51.792c1.193,0.386,24.001,1.724,24.001,1.724l-6.748-72.732
			c0,0,2.228-17.864-20.012-21.641l-38.124-14.769L183.582,305.673z"/>
		<path style="fill:#13B9A4;" d="M195.388,217.804c2.267,1.024,18.965,1.209,28.775,17.278c9.81,16.069,13.706,28.374,13.706,28.374
			l-10.839,16.579c0,0-7.876-1.426-21.83-29.407l-8.462-30.838"/>
		<path style="fill:#019F8A;" d="M212.335,231.888c0,0,16.415,15.355,18.121,29.705c0.212,1.786,0.551,2.836,1.433,4.404
			c6.992,12.433,25.341,4.244,25.341,4.244l-1.194,16.478c0,0-18.176-1.428-31.319-7.606c-13.143-6.177-12.328-19.766-14.125-27.796
			C208.794,243.287,212.335,231.888,212.335,231.888z"/>
		<path style="fill:#13B9A4;" d="M220.707,273.739v31.338l-58.96,1.178l0.04-7.317l0.02-4.147l-0.086-1.047l-1.861-22.231
			l-0.506-6.013l-2.043-24.446c0-6.089,4.253-13.381,9.654-18.281c1.997-1.81,4.147-3.292,6.301-4.268
			c1.8-0.819,3.605-1.279,5.32-1.279l0.794,0.081l9.391,0.976l1.33,0.137l10.21,1.062c5.249,1.077,17.386,7.763,18.155,17.462
			l0.293,5.624c0,0,0.509,3.628,0.973,10.946C220.395,263.932,220.56,263.436,220.707,273.739z"/>
		<path style="fill:#13B9A4;" d="M262.948,281.446c-1.502,5.178-3.711,7.593-6.502,6.961c0,0-26.542-3.556-25.225-22.091
			c0.105-1.48-0.566-2.948,0.197-4.228c0.784-1.31,0.329-2.447,3.479-1.734l26.564,6.003
			C264.966,267.15,264.84,274.943,262.948,281.446z"/>
		<path style="fill:#019F8A;" d="M262.948,277.808c-1.502,5.178-4.121,9.543-6.913,8.91c0,0-31.055-5.837-28.695-27.582
			c0,0,1.136-5.024,1.884-2.885c2.75,7.87,4.52,9.872,8.523,10.967c5.74,1.571,10.114,2.276,19.006,4.004
			C260.1,271.872,262.7,275.881,262.948,277.808z"/>
		<path style="fill:#FFFFFF;" d="M257.924,277.663c-1.32,5.777-0.699,11.021,1.386,11.712c2.085,0.691,4.845-3.433,6.165-9.21
			c1.32-5.778,0.7-11.021-1.385-11.712C262.004,267.761,259.244,271.885,257.924,277.663z"/>
		<path style="fill:#E6E7E8;" d="M257.9,277.727c-1.156,5.062-0.613,9.656,1.214,10.261c1.827,0.605,4.245-3.007,5.401-8.069
			c1.156-5.062,0.613-9.656-1.214-10.262C261.474,269.053,259.056,272.665,257.9,277.727z"/>
		<path style="fill:#F58D6C;" d="M261.193,274.778c0,0-0.458,6.056,6.388,3.238c4.203,1.116,5.571,1.698,10.255-0.576
			c4.627,0.615,8.964,2.089,9.864,3.79c1.641,3.1,4.982,0.906,3.749-1.648c-1.233-2.554-4.076-6.471-14.067-7.733
			C267.391,270.586,261.193,274.778,261.193,274.778z"/>
		<path style="fill:#FFB287;" d="M289.134,271.6c-2.378-2.139-5.48-2.471-8.609-1.927c-0.803-0.662-2.696-1.396-3.825-1.57
			c-1.752-0.27-8.158,1.205-8.158,1.205s-7.827,0.96-9.403,1.904c-1.576,0.943-2.397,2.782-2.156,6.314
			c0.329,4.815,8.358,2.741,12.304,7.951c3.946,5.21,7.723-1.717,2.022-6.796c-4.45-3.964,2.698-4.575,4.178-5.103
			c0.168-0.06,3.369,1.325,5.145,3.714c3.147,4.232,5.858,3.082,6.432,1.833c0.605-1.317,0.016-2.429-1.208-4.062
			c0.816,0.401,1.42,0.946,1.742,1.572C289.361,280.062,296.644,278.356,289.134,271.6z"/>
		<path style="fill:#F49656;" d="M280.525,269.673c0,0,0.143,0.095,0.385,0.273c0.238,0.182,0.589,0.43,0.984,0.759
			c0.397,0.327,0.861,0.708,1.338,1.14c0.479,0.429,0.971,0.909,1.453,1.399c0.472,0.5,0.937,1.008,1.337,1.516
			c0.201,0.253,0.394,0.499,0.556,0.749c0.168,0.245,0.327,0.475,0.452,0.704c0.134,0.222,0.251,0.429,0.326,0.629
			c0.077,0.197,0.171,0.355,0.199,0.507c0.073,0.292,0.115,0.459,0.115,0.459s-0.067-0.157-0.185-0.432
			c-0.044-0.141-0.159-0.288-0.257-0.468c-0.097-0.181-0.238-0.368-0.382-0.577c-0.283-0.42-0.672-0.872-1.086-1.353
			c-0.2-0.246-0.437-0.478-0.656-0.729c-0.223-0.249-0.464-0.489-0.697-0.737c-0.471-0.491-0.954-0.971-1.408-1.421
			c-0.457-0.448-0.883-0.866-1.249-1.224C281.015,270.151,280.525,269.673,280.525,269.673z"/>
		<path style="fill:#FFFFFF;" d="M261.862,267.714l0.94,0.311l0.556,0.184l0.703,0.364c-0.028,0.006,0.028-0.008,0,0
			c-1.914,0.536-3.936,4.324-4.925,9.316c-1.191,6.006-1.437,10.935,0.648,11.626l-2.701-0.879
			c-2.085-0.691-2.705-5.935-1.385-11.712C257.016,271.147,259.777,267.023,261.862,267.714z"/>
		<path style="fill:#019F8A;" d="M172.665,280.657l-4.547-33.353l-13.214,43.114l6.889,5.544c1.929,0.82,3.965,1.056,5.924,0.794
			l1.638,0.907c0.025,0.016,0.046,0.04,0.072,0.054c0.058,0.033,0.118,0.061,0.179,0.085l0.259,0.143L172.665,280.657z"/>
		<path style="fill:#13B9A4;" d="M191.341,216.721l-1.598,0.971l-0.971,0.592l-7.09,4.319c1.8,0.88,0.228,2.604-1.826,4.561
			c-1.658,1.578-4.052,9.849-4.816,11.412l-16.267,29.162l-1.735,2.577l2.822,1.199l10.033,4.263
			c5.942,2.523,8.627,9.588,5.998,15.778l-0.096,0.228c-2.407,5.669-8.44,8.642-14.008,7.156c-0.506-0.132-1.011-0.303-1.512-0.516
			l-25.068-10.65c-5.942-2.523-8.622-9.583-5.993-15.778l0.096-0.222c0.597-1.406,2.523-5.431,3.504-6.478l16.683-29.462
			c3.312-5.593,7.525-9.593,12.101-12.43c3.737-2.326,7.722-3.874,11.667-4.895c2.063-0.531,4.116-0.92,6.114-1.199
			c3.53-0.49,6.893-0.632,9.871-0.617C189.975,216.691,190.668,216.706,191.341,216.721z"/>
		<path style="fill:#FFFFFF;" d="M168.776,288.417c-2.393,5.422-2.78,10.688-0.864,11.762c1.916,1.074,5.409-2.45,7.802-7.872
			c2.393-5.422,2.78-10.688,0.864-11.762C174.662,279.471,171.169,282.995,168.776,288.417z"/>
		<path style="fill:#E6E7E8;" d="M168.74,288.476c-2.097,4.75-2.436,9.364-0.757,10.305c1.678,0.941,4.739-2.146,6.836-6.896
			c2.097-4.75,2.436-9.364,0.757-10.305C173.897,280.638,170.837,283.726,168.74,288.476z"/>
		<path style="fill:#E6E7E8;" d="M212.62,293.794c0,6.03-30.452,6.03-30.452,0c0-6.03,6.817-10.918,15.226-10.918
			C205.803,282.876,212.62,287.764,212.62,293.794z"/>
		<path style="fill:#BCBEC0;" d="M209.067,286.79c1.457,1.674,2.312,3.646,2.312,5.764c0,5.232-22.916,5.921-28.983,2.073
			c2.683,5.178,30.223,4.903,30.223-0.833C212.62,291.127,211.283,288.686,209.067,286.79z"/>
		<path style="fill:#BCBEC0;" d="M197.245,294.259c-0.467-1.35-1.019-2.49-1.628-3.457c1.222,0.729,2.59,1.654,4.097,2.83
			c2.946,2.3,6.625,0.599,3.459-3.956c-1.42-2.043-3.144-3.25-5.931-4.368c2.16-0.089,4.199,0.35,7.096,1.821
			c2.1,1.066,3.756,0.696,4.581-0.201c-2.792-2.471-7.055-4.051-11.834-4.051c-8.409,0-15.226,4.888-15.226,10.918
			c0,0.546,0.253,1.042,0.707,1.489c1.645-0.881,3.157-2.053,4.453-3.241c1.895,0.423,4.121,1.648,5.899,4.732
			c0.348,0.604,0.693,1.082,1.03,1.456c1.066,0.06,2.152,0.089,3.238,0.087C197.69,297.369,197.794,295.847,197.245,294.259z"/>
		<path style="fill:#FFB287;" d="M208.002,281.987c-15.668-10.322-29.289,1.141-29.289,1.141l-6.048-2.471
			c-5.868,1.829-5.636,11.156-5.636,11.156s1.994,1.264,7.169,3.153c4.719,1.723,9.406-1.2,12.698-4.219
			c1.895,0.423,4.121,1.648,5.899,4.732c2.947,5.112,5.715,1.499,4.329-2.515c-0.467-1.35-1.019-2.49-1.628-3.457
			c1.222,0.729,2.59,1.653,4.097,2.83c2.946,2.3,6.625,0.599,3.458-3.956c-1.42-2.043-3.144-3.25-5.93-4.368
			c2.16-0.089,4.199,0.35,7.096,1.821C208.612,288.066,211.073,284.01,208.002,281.987z"/>
		<path style="fill:#F58D6C;" d="M189.579,285.363c0,0,3.548,1.032,5.917,4.145c0,0,2.259,1.01,3.817,2.613
			c1.558,1.603,3.474,1.505,4.585,0.52c0,0-1.381,0.931-4.665-2.045C193.458,285.363,189.579,285.363,189.579,285.363z"/>
		<path style="fill:#F58D6C;" d="M193.127,282.876c0,0,2.306,0.38,3.994,1.138c0,0,2.884-0.548,6.215,1.35
			c3.331,1.898,4.334,1.288,5.618,0.313c-1.509,0.34-1.609,0.416-6.196-1.743C198.789,282.066,195.228,282.437,193.127,282.876z"/>
		<path style="fill:#FFFFFF;" d="M174.532,279.398l0.864,0.484l0.511,0.286l0.621,0.491c-0.029,0.001,0.029-0.002,0,0
			c-1.981,0.163-4.685,3.498-6.605,8.211c-2.31,5.671-3.488,10.463-1.572,11.537l-2.485-1.376c-1.916-1.074-1.529-6.34,0.864-11.762
			C169.123,281.848,172.616,278.323,174.532,279.398z"/>
		<path style="fill:#019F8A;" d="M149.587,267.233l7.598,3.145l4.792-1.46c0,0,0.801-8.26-0.758-5.647
			c-1.559,2.613-3.54,3.666-7.509,2.292l-2.868-1.217c-0.768-0.341-1.668-0.011-2.034,0.746l-0.014,0.029
			C148.406,265.922,148.768,266.885,149.587,267.233z"/>
		<path style="fill:#019F8A;" d="M157.185,270.378l11.188,4.753l-0.066-0.047c-3.583-1.759-5.388-6.484-4.798-12.589l5.042-12.371
			L157.185,270.378z"/>
		<path style="fill:#FFB287;" d="M182.41,206.932l-2.83,11.776c0,0,21.738,23.301,22.994,18.182
			c2.219-9.042,0.856-13.267-3.995-15.38l1.86-8.671L182.41,206.932z"/>
		<path style="fill:#FFFFFF;" d="M202.112,238.244c-0.986,0.223-6.175-0.455-12.354-5.128c-0.577-0.435-1.158-0.905-1.75-1.411
			c-0.01-0.01-0.02-0.015-0.03-0.025c-0.268,0.253-0.758,0.632-1.229,0.647c-0.703,0.02-10.053-5.436-11.11-14.959
			c-0.015-0.121,0.045-0.243,0.147-0.308l4.506-3.459c0.187-0.121,0.43-0.02,0.48,0.197c0.379,1.598,1.795,8.142,10.347,13.325
			c0.005,0.005,0.01,0.01,0.015,0.01c0.248,0.212,0.516,0.44,0.799,0.678c1.988,1.669,4.653,3.919,6.402,5.396l4.046,4.536
			C202.527,237.961,202.37,238.189,202.112,238.244z"/>
		<path style="fill:#FFFFFF;" d="M201.682,238.3c0,0,1.082-2.436,0.886-6.398c-0.33-6.683-3.14-9.2-3.958-10.467l1.062-4.94
			c0,0,5.176,5.244,8.372,12.513c0.136,0.309-0.279,0.595-0.58,0.442l-1.691-0.815c-0.444-0.214-0.955,0.122-0.933,0.615
			C204.953,231.725,205.207,238.319,201.682,238.3z"/>
		<path style="fill:#A7CED8;" d="M191.948,227.776l-0.015,0.035l-2.174,5.305c-0.577-0.435-1.158-0.905-1.75-1.411
			c0-0.01,0-0.025,0.005-0.041l3.12-4.531l0.02-0.03C191.401,227.316,191.669,227.538,191.948,227.776z"/>
		<path style="fill:#31436C;" d="M161.817,306.385c0,0-3.752,25.148,25.215,27.281s41.723,9.956,41.723,9.956
			s6.748,0.736,6.893,17.787c0,0,2.716,51.846,3.909,52.233c1.193,0.386,24.091,1.283,24.091,1.283l-6.748-72.732
			c0,0,2.228-17.864-20.012-21.641l-43.771-14.769L161.817,306.385z"/>
		<path style="fill:#27385B;" d="M246.887,409.342c-1.193-0.386-3.909-52.233-3.909-52.233c-0.145-17.051-6.893-17.787-6.893-17.787
			s-12.756-7.823-41.723-9.956c-21.465-1.581-24.96-15.791-25.333-23.05l-7.099,0.137c0,0-3.752,25.147,25.215,27.281
			c28.967,2.134,41.723,9.956,41.723,9.956s6.748,0.736,6.893,17.787c0,0,2.716,51.846,3.909,52.233
			c1.193,0.387,24.091,1.284,24.091,1.284l-0.435-4.687C256.549,410.01,247.62,409.58,246.887,409.342z"/>
		<path style="fill:#FFFFFF;" d="M193.522,229.163l5.251,0.537l2.398-4.134l2.729,0.868l-0.207,8.351l-0.951,2.439l-1.53,0.579
			c0,0-4.093-2.315-4.176-2.481C196.953,235.157,193.522,229.163,193.522,229.163z"/>
		<path style="fill:#FFB287;" d="M193.654,215.478h-2.336c-13.07,0-23.764-10.694-23.764-23.764v-16.606
			c0-13.07,10.694-23.764,23.764-23.764h2.336c13.07,0,23.764,10.694,23.764,23.764v16.606
			C217.418,204.784,206.724,215.478,193.654,215.478z"/>
		<path style="fill:#F49E73;" d="M198.63,214.412h-2.336c-13.07,0-23.764-10.694-23.764-23.764v-16.606
			c0-10.506,6.912-19.472,16.412-22.587c-12.021,1.147-21.506,11.345-21.506,23.654v16.606c0,13.07,10.694,23.764,23.764,23.764
			h2.336c2.564,0,5.034-0.417,7.352-1.177C200.144,214.372,199.391,214.412,198.63,214.412z"/>
		<path style="fill:#FFFFFF;" d="M192.035,197.879c0.337,4.279,3.908,7.647,8.273,7.647s7.936-3.369,8.273-7.647H192.035z"/>
		<path style="fill:#F58D6C;" d="M201.079,195.021L201.079,195.021c-1.303,0-2.37-1.066-2.37-2.37v-5.371
			c0-1.303,1.066-2.369,2.37-2.369l0,0c1.303,0,2.369,1.066,2.369,2.369v5.371C203.448,193.955,202.382,195.021,201.079,195.021z"/>
		<path style="fill:#3A2416;" d="M193.463,186.126c0,1.26-1.021,2.281-2.281,2.281c-1.26,0-2.281-1.021-2.281-2.281
			c0-1.26,1.021-2.281,2.281-2.281C192.442,183.845,193.463,184.866,193.463,186.126z"/>
		<path style="fill:#3A2416;" d="M211.412,186.126c0,1.26-1.021,2.281-2.281,2.281c-1.259,0-2.281-1.021-2.281-2.281
			c0-1.26,1.021-2.281,2.281-2.281C210.391,183.845,211.412,184.866,211.412,186.126z"/>
		<path style="fill:#6F433A;" d="M177.968,183.242c-0.431-1.511-2.353-2.023-3.732-1.893c-1.738,0.163-3.059,1.526-3.532,3.168
			c-0.495,1.721-0.203,3.557,0.051,5.33c0.255,1.773,0.458,3.639-0.194,5.307c-0.14,0.359-0.332,0.719-0.653,0.933
			c-0.946,0.633-2.131-0.349-2.803-1.267c-3.979-5.436-6.498-12.015-6.679-18.749c-0.181-6.734,2.067-13.59,6.565-18.606
			c5.055-5.636,12.581-8.63,20.114-9.387c4.253-0.427,8.679-0.175,12.58,1.573c3.901,1.747,14.613,3.171,22.048,10.494
			c3.046,2.999,0.673,10.56-3.289,12.165c-2.766,1.12-21.812-2.065-24.795-2.149c-2.983-0.083-6.362,0.486-8.057,2.943
			c-1.989,2.882-0.933,7.041-3.628,9.555C180.949,183.604,179.173,184.165,177.968,183.242"/>
		<g>
			<path style="fill:#737582;" d="M173.755,176.244c-0.542-4.49,0.187-9.816,1.883-14.153c3.675-9.399,12.746-13.241,22.41-12.973
				c5.114,0.142,12.001,1.192,14.955,5.885c0.556,0.883,2.013,0.141,1.451-0.752c-3.001-4.768-9.202-6.213-14.467-6.66
				c-4.823-0.41-9.881,0.067-14.377,1.924c-8.424,3.48-12.623,11.8-13.447,20.496c-0.206,2.173-0.266,4.413-0.003,6.587
				C172.285,177.64,173.88,177.282,173.755,176.244L173.755,176.244z"/>
		</g>
		<g>
			<ellipse style="opacity:0.15;fill:#231F20;" cx="174.907" cy="186.475" rx="7.569" ry="9.598"/>
			<ellipse style="fill:#737582;" cx="174.213" cy="185.777" rx="7.569" ry="9.598"/>
			<path style="fill:#A7A9AC;" d="M179.89,185.832c0,4.19-2.678,7.586-5.982,7.586c-3.304,0-5.982-3.397-5.982-7.586
				s2.678-7.586,5.982-7.586C177.211,178.246,179.89,181.642,179.89,185.832z"/>
			<path style="opacity:0.15;fill:#231F20;" d="M175.644,176.355c-0.464-0.113-0.942-0.177-1.432-0.177
				c-4.18,0-7.569,4.297-7.569,9.598c0,5.301,3.389,9.598,7.569,9.598c0.401,0,0.792-0.051,1.177-0.128
				C172.607,188.674,174.36,180.576,175.644,176.355z"/>
		</g>
		<path style="fill:#6F433A;" d="M211.291,153.542c0,0,3.6,1.495,4.061,1.925c0.461,0.429,0,1.721,0,1.721l-5.497-0.479
			L211.291,153.542z"/>
		<path style="fill:#737582;" d="M185.544,202.795L185.544,202.795c-0.386,0.344-0.983,0.31-1.328-0.076l-7.523-8.429
			c-0.344-0.386-0.31-0.983,0.076-1.328l0,0c0.386-0.344,0.983-0.31,1.328,0.076l7.523,8.429
			C185.964,201.853,185.93,202.451,185.544,202.795z"/>
		<path style="fill:#737582;" d="M193.518,201.304L193.518,201.304c0.045,0.515-0.34,0.973-0.856,1.018l-7.7,0.669
			c-0.515,0.045-0.973-0.34-1.018-0.855l0,0c-0.045-0.515,0.34-0.973,0.856-1.018l7.7-0.669
			C193.015,200.404,193.474,200.789,193.518,201.304z"/>
		<path style="fill:#939598;" d="M195.625,202.833h-3.96c-0.928,0-1.688-0.759-1.688-1.688l0,0c0-0.928,0.759-1.688,1.688-1.688
			h3.96c0.928,0,1.688,0.759,1.688,1.688l0,0C197.313,202.074,196.553,202.833,195.625,202.833z"/>
	</g>
	<rect x="400.504" y="307.076" style="fill:#D1D3D4;" width="8.585" height="140.789"/>
	<rect x="400.504" y="307.076" style="opacity:0.15;fill:#231F20;" width="8.585" height="8.127"/>
	<rect x="352.371" y="307.078" style="fill:#A7A9AC;" width="8.587" height="140.786"/>
	<rect x="352.373" y="307.076" style="opacity:0.15;fill:#231F20;" width="8.585" height="8.127"/>
	<rect x="142.261" y="307.076" style="fill:#D1D3D4;" width="8.585" height="140.789"/>
	<rect x="142.261" y="307.076" style="opacity:0.15;fill:#231F20;" width="8.585" height="8.127"/>
	<rect x="94.129" y="307.076" style="fill:#BCBEC0;" width="8.585" height="140.788"/>
	<rect x="94.129" y="307.076" style="opacity:0.15;fill:#231F20;" width="8.585" height="8.127"/>
	<rect x="82.097" y="297.788" style="fill:#D8743D;" width="344.414" height="9.288"/>
	<rect x="82.097" y="297.788" style="fill:#A55747;" width="80.669" height="9.288"/>
	<g>
		<g>
			<path style="fill:#737582;" d="M332.958,293.112c0,2.706-2.194,4.9-4.9,4.9h-96.829c-2.706,0-4.9-2.194-4.9-4.9v-0.099
				c0-2.706,2.194-4.9,4.9-4.9h96.829c2.706,0,4.9,2.194,4.9,4.9V293.112z"/>
			<path style="fill:#5F6270;" d="M328.058,288.113h-13.349c2.706,0,4.9,2.194,4.9,4.9v0.099c0,2.706-2.194,4.9-4.9,4.9h13.349
				c2.706,0,4.9-2.194,4.9-4.9v-0.099C332.958,290.307,330.764,288.113,328.058,288.113z"/>
			<path style="fill:#D1D4E2;" d="M264.496,293.112c0,2.706-2.194,4.9-4.9,4.9h-39.328c-2.706,0-4.9-2.194-4.9-4.9v-0.099
				c0-2.706,2.194-4.9,4.9-4.9h39.328c2.706,0,4.9,2.194,4.9,4.9V293.112z"/>
			<path style="fill:#D1D4E2;" d="M344.108,218.302h-65.117c-1.339,0-2.499,0.926-2.795,2.232l-14.834,64.078
				c-0.407,1.794,0.956,3.501,2.796,3.501h65.117c1.339,0,2.499-0.926,2.795-2.232l16.914-62.9c0.175-0.772-1.948-2.787-2.434-3.315
				C345.753,218.801,345.156,218.302,344.108,218.302z"/>
			<path style="fill:#A1A8BA;" d="M346.425,220.968l-65.117,0c-1.339,0-2.499,0.926-2.796,2.232l-13.945,61.411
				c-0.407,1.794,0.956,3.501,2.795,3.501h65.117c1.339,0,2.499-0.926,2.795-2.232l13.945-61.411
				C349.628,222.676,348.265,220.968,346.425,220.968z"/>
			<path style="fill:#9198A8;" d="M346.425,220.968h-2.656l-13.605,59.913c-0.296,1.305-1.457,2.232-2.795,2.232h-62.461
				l-0.34,1.499c-0.407,1.794,0.956,3.501,2.795,3.501h65.117c1.339,0,2.499-0.926,2.795-2.232l13.945-61.411
				C349.628,222.676,348.265,220.968,346.425,220.968z"/>
			
				<ellipse transform="matrix(0.734 -0.6792 0.6792 0.734 -90.2411 279.215)" style="fill:#FFFFFF;" cx="311.323" cy="254.809" rx="10.187" ry="8.721"/>
			<path style="fill:#D1D3D4;" d="M318.266,254.809c-0.596,3.834-4.188,6.943-8.022,6.943c-3.834,0-6.459-3.108-5.863-6.943
				c0.596-3.834,4.188-6.943,8.022-6.943C316.237,247.866,318.862,250.974,318.266,254.809z"/>
		</g>
		<g>
			<path style="opacity:0.15;fill:#231F20;" d="M281.775,229.786l10.566-0.893c0,0,3.423,7.887,5.208,9.077l-11.756,1.488
				C285.793,239.458,281.478,232.018,281.775,229.786z"/>
			<path style="fill:#FFC200;" d="M281.589,228.558l10.566-0.893c0,0,3.423,7.887,5.208,9.077l-11.756,1.488
				C285.607,238.231,281.292,230.79,281.589,228.558z"/>
		</g>
		<g>
			<path style="opacity:0.15;fill:#231F20;" d="M319.424,236.797l11.869-0.33c0,0,3.328,9.034,5.249,10.478l-13.238,0.92
				C323.305,247.866,318.95,239.274,319.424,236.797z"/>
			<path style="fill:#FFC200;" d="M319.294,235.413l11.869-0.33c0,0,3.328,9.034,5.249,10.478l-13.238,0.92
				C323.174,246.482,318.82,237.89,319.294,235.413z"/>
		</g>
		<g>
			<path style="opacity:0.15;fill:#231F20;" d="M276.957,263.519l10.595-0.408c0,0,3.057,8.036,4.787,9.307l-11.812,0.948
				C280.527,273.366,276.557,265.735,276.957,263.519z"/>
			<path style="fill:#22D3CA;" d="M276.827,262.284l10.596-0.408c0,0,3.057,8.036,4.787,9.307l-11.812,0.948
				C280.397,272.131,276.427,264.5,276.827,262.284z"/>
		</g>
	</g>
	<g>
		<g>
			<rect x="357.401" y="249.451" style="fill:#E25833;" width="70.627" height="16.016"/>
			<rect x="392.65" y="249.451" style="opacity:0.1;fill:#231F20;" width="35.354" height="16.016"/>
			<rect x="357.401" y="253.773" style="fill:#FFFFFF;" width="18.984" height="9.071"/>
			<rect x="395.73" y="255.184" style="fill:#EAEAEA;" width="29.194" height="6.248"/>
			<path style="fill:#FFFFFF;" d="M388.611,257.836c0,2.053-1.664,3.717-3.717,3.717c-2.053,0-3.717-1.664-3.717-3.717
				c0-2.053,1.664-3.717,3.717-3.717C386.946,254.119,388.611,255.783,388.611,257.836z"/>
			<path style="fill:#C6C6C6;" d="M386.105,257.836c0,1.027-0.832,1.859-1.859,1.859c-1.027,0-1.859-0.832-1.859-1.859
				c0-1.026,0.832-1.859,1.859-1.859C385.273,255.978,386.105,256.81,386.105,257.836z"/>
		</g>
		<g>
			<rect x="357.337" y="281.772" style="fill:#13B9A4;" width="70.627" height="16.016"/>
			<rect x="392.586" y="281.772" style="opacity:0.1;fill:#231F20;" width="35.354" height="16.016"/>
			<rect x="357.337" y="286.094" style="fill:#FFFFFF;" width="18.984" height="9.071"/>
			<rect x="395.666" y="287.505" style="fill:#EAEAEA;" width="29.194" height="6.248"/>
			<path style="fill:#FFFFFF;" d="M388.546,290.158c0,2.053-1.664,3.717-3.717,3.717c-2.053,0-3.717-1.664-3.717-3.717
				c0-2.053,1.664-3.717,3.717-3.717C386.882,286.44,388.546,288.105,388.546,290.158z"/>
			<path style="fill:#C6C6C6;" d="M386.041,290.158c0,1.027-0.832,1.859-1.859,1.859c-1.027,0-1.859-0.832-1.859-1.859
				c0-1.026,0.832-1.859,1.859-1.859C385.209,288.299,386.041,289.131,386.041,290.158z"/>
		</g>
		<g>
			
				<rect x="363.45" y="265.467" transform="matrix(-1 -1.224647e-16 1.224647e-16 -1 797.5261 546.9494)" style="fill:#3071B8;" width="70.627" height="16.016"/>
			
				<rect x="363.474" y="265.467" transform="matrix(-1 -1.224647e-16 1.224647e-16 -1 762.3014 546.9494)" style="opacity:0.1;fill:#231F20;" width="35.354" height="16.016"/>
			
				<rect x="415.093" y="269.789" transform="matrix(-1 -1.224647e-16 1.224647e-16 -1 849.1691 548.648)" style="fill:#FFFFFF;" width="18.984" height="9.071"/>
			
				<rect x="366.554" y="271.2" transform="matrix(-1 -1.224647e-16 1.224647e-16 -1 762.3014 548.648)" style="fill:#EAEAEA;" width="29.194" height="6.248"/>
			<path style="fill:#FFFFFF;" d="M402.867,273.853c0,2.053,1.664,3.717,3.717,3.717s3.717-1.664,3.717-3.717
				c0-2.053-1.664-3.717-3.717-3.717S402.867,271.799,402.867,273.853z"/>
			<path style="fill:#C6C6C6;" d="M405.372,273.853c0,1.026,0.832,1.859,1.859,1.859c1.026,0,1.859-0.832,1.859-1.859
				c0-1.027-0.832-1.859-1.859-1.859C406.204,271.994,405.372,272.826,405.372,273.853z"/>
		</g>
	</g>
</g>
<g id="DESIGNED_BY_FREEPIK">
	<g>
		<g id="XMLID_29_">
			<g id="XMLID_48_">
				<path id="XMLID_56_" style="fill:#F7FAFB;" d="M260.104,467.375c-0.432,0.443-0.803,0.931-1.108,1.453l-0.465-0.241
					c-0.067-0.298-0.349-0.503-0.659-0.466c-0.331,0.039-0.568,0.339-0.529,0.67c0.039,0.331,0.339,0.568,0.67,0.529
					c0.065-0.008,0.127-0.026,0.184-0.052l0.451,0.234c-0.251,0.554-0.433,1.139-0.539,1.744l0.747,0.132
					c0.23-1.306,0.85-2.507,1.792-3.473L260.104,467.375z"/>
				<path id="XMLID_55_" style="fill:#F7FAFB;" d="M265.592,465.073c-0.171,0-0.341,0.006-0.51,0.017l-0.074-0.626
					c0.188-0.149,0.296-0.389,0.266-0.645c-0.046-0.393-0.402-0.674-0.795-0.628c-0.393,0.046-0.674,0.402-0.628,0.795
					c0.03,0.254,0.189,0.461,0.405,0.564l0.073,0.624c-0.714,0.116-1.403,0.332-2.06,0.646l0.327,0.684
					c0.934-0.447,1.942-0.673,2.995-0.673c0.496,0,0.993,0.053,1.475,0.158l0.161-0.741
					C266.692,465.132,266.142,465.073,265.592,465.073z"/>
				<path id="XMLID_54_" style="fill:#F7FAFB;" d="M272.194,467.62c0.331-0.04,0.566-0.341,0.526-0.672
					c-0.04-0.331-0.341-0.566-0.672-0.526c-0.309,0.038-0.535,0.304-0.53,0.609l-0.416,0.363c-0.418-0.43-0.89-0.813-1.408-1.139
					l-0.404,0.641c1.134,0.715,2.021,1.726,2.563,2.925l0.69-0.313c-0.251-0.554-0.567-1.072-0.942-1.545l0.402-0.351
					C272.065,467.625,272.129,467.628,272.194,467.62z"/>
				<path id="XMLID_53_" style="fill:#F7FAFB;" d="M265.044,475.281c-0.386,0.023-0.775,0.035-1.157,0.035
					c-0.88,0-1.733-0.061-2.478-0.179c-0.39-0.062-0.846-0.155-1.27-0.292c1.046,1.861,3.069,3.125,5.388,3.125
					c2.855,0,5.262-1.916,5.95-4.504c-0.682,0.449-1.505,0.825-2.459,1.123C267.839,474.956,266.463,475.196,265.044,475.281z"/>
				<path id="XMLID_49_" style="fill:#F7FAFB;" d="M265.592,466.589c-3.352,0-6.08,2.666-6.08,5.943
					c0,0.426,0.046,0.849,0.137,1.261c0.673,0.483,2.706,0.89,5.348,0.731c2.879-0.173,5.297-0.957,6.672-2.159
					c-0.005-0.195-0.021-0.39-0.045-0.582C271.244,468.822,268.65,466.589,265.592,466.589z M263.432,473.104
					c-1.02,0-1.85-0.83-1.85-1.85c0-1.02,0.83-1.85,1.85-1.85c1.02,0,1.85,0.83,1.85,1.85
					C265.282,472.274,264.452,473.104,263.432,473.104z M268.17,472.195c-0.75,0-1.36-0.61-1.36-1.36s0.61-1.361,1.36-1.361
					c0.75,0,1.361,0.61,1.361,1.361S268.92,472.195,268.17,472.195z"/>
			</g>
			<path id="XMLID_46_" style="fill:#F7FAFB;" d="M281.595,468.456c-0.295-0.116-0.805-0.309-1.382-0.237
				c-0.551,0.069-0.844,0.341-0.844,1.007v0.866h2.228v1.717h-2.228v5.455h-1.932v-5.455h-1.34v-1.717h1.34v-0.888
				c0-1.68,0.896-2.783,2.568-2.783c0.643,0,1.157,0.122,1.59,0.308L281.595,468.456z"/>
			<path id="XMLID_44_" style="fill:#F7FAFB;" d="M286.298,471.788c-0.177-0.03-0.358-0.046-0.526-0.046
				c-0.896,0-1.51,0.548-1.51,1.613v3.908h-1.932v-7.172h1.873v0.785c0.451-0.673,1.14-0.977,2.021-0.977
				c0.414,0,0.848,0.128,1.094,0.337L286.298,471.788z"/>
			<path id="XMLID_41_" style="fill:#F7FAFB;" d="M293.965,473.666c0,0.222-0.015,0.489-0.037,0.651h-5.085
				c0.207,1.036,0.933,1.488,1.843,1.488c0.622,0,1.295-0.252,1.813-0.688l1.133,1.243c-0.814,0.748-1.85,1.088-3.057,1.088
				c-2.198,0-3.723-1.495-3.723-3.753c0-2.258,1.48-3.797,3.626-3.797C292.544,469.899,293.958,471.431,293.965,473.666z
				 M288.851,473h3.175c-0.177-0.918-0.733-1.436-1.562-1.436C289.554,471.564,289.021,472.112,288.851,473z"/>
			<path id="XMLID_38_" style="fill:#F7FAFB;" d="M301.618,473.666c0,0.222-0.015,0.489-0.037,0.651h-5.085
				c0.207,1.036,0.933,1.488,1.843,1.488c0.622,0,1.295-0.252,1.813-0.688l1.132,1.243c-0.814,0.748-1.85,1.088-3.057,1.088
				c-2.198,0-3.723-1.495-3.723-3.753c0-2.258,1.48-3.797,3.627-3.797C300.197,469.899,301.611,471.431,301.618,473.666z
				 M296.504,473h3.175c-0.178-0.918-0.733-1.436-1.562-1.436C297.207,471.564,296.674,472.112,296.504,473z"/>
			<path id="XMLID_35_" style="fill:#F7FAFB;" d="M309.964,473.674c0,2.154-1.495,3.775-3.471,3.775
				c-0.962,0-1.643-0.378-2.109-0.933v3.708h-1.924v-10.133h1.887v0.792c0.466-0.585,1.155-0.984,2.139-0.984
				C308.469,469.899,309.964,471.52,309.964,473.674z M304.287,473.674c0,1.132,0.748,1.976,1.843,1.976
				c1.14,0,1.85-0.881,1.85-1.976c0-1.095-0.71-1.976-1.85-1.976C305.035,471.697,304.287,472.541,304.287,473.674z"/>
			<path id="XMLID_32_" style="fill:#F7FAFB;" d="M313.068,467.745c0,0.696-0.54,1.229-1.236,1.229
				c-0.696,0-1.229-0.533-1.229-1.229c0-0.696,0.533-1.243,1.229-1.243C312.527,466.502,313.068,467.049,313.068,467.745z
				 M312.809,477.263h-1.932v-7.172h1.932V477.263z"/>
			<path id="XMLID_30_" style="fill:#F7FAFB;" d="M316.032,472.645l2.701-2.554h2.368l-3.479,3.375l3.501,3.797h-2.376l-2.716-2.901
				v2.901H314.1v-10.658h1.932V472.645z"/>
		</g>
		<g>
			<path style="fill:#F7FAFB;" d="M184.412,477.198v-1.055c-0.527,0.718-1.391,1.23-2.387,1.23c-1.846,0-3.149-1.406-3.149-3.706
				c0-2.256,1.289-3.721,3.149-3.721c0.952,0,1.816,0.469,2.387,1.245v-3.765h1.099v9.77H184.412z M184.412,475.279v-3.208
				c-0.395-0.615-1.245-1.143-2.124-1.143c-1.421,0-2.27,1.172-2.27,2.739c0,1.567,0.85,2.724,2.27,2.724
				C183.168,476.393,184.017,475.895,184.412,475.279z"/>
			<path style="fill:#F7FAFB;" d="M186.932,473.654c0-2.051,1.465-3.706,3.486-3.706c2.139,0,3.398,1.67,3.398,3.794v0.279h-5.727
				c0.088,1.333,1.025,2.446,2.549,2.446c0.805,0,1.626-0.322,2.182-0.894l0.527,0.718c-0.703,0.703-1.655,1.084-2.812,1.084
				C188.44,477.374,186.932,475.865,186.932,473.654z M190.403,470.856c-1.509,0-2.256,1.274-2.314,2.358h4.643
				C192.718,472.159,192.015,470.856,190.403,470.856z"/>
			<path style="fill:#F7FAFB;" d="M194.607,476.261l0.571-0.791c0.469,0.542,1.362,1.011,2.329,1.011c1.084,0,1.67-0.513,1.67-1.216
				c0-1.714-4.38-0.659-4.38-3.281c0-1.098,0.952-2.036,2.636-2.036c1.201,0,2.051,0.454,2.622,1.026l-0.513,0.762
				c-0.424-0.513-1.201-0.894-2.109-0.894c-0.967,0-1.567,0.483-1.567,1.113c0,1.552,4.38,0.527,4.38,3.281
				c0,1.187-0.952,2.138-2.783,2.138C196.306,477.374,195.325,477.022,194.607,476.261z"/>
			<path style="fill:#F7FAFB;" d="M201.477,468.38c0-0.41,0.337-0.747,0.732-0.747c0.41,0,0.747,0.337,0.747,0.747
				c0,0.41-0.337,0.732-0.747,0.732C201.814,469.112,201.477,468.79,201.477,468.38z M201.667,477.198v-7.075h1.099v7.075H201.667z"
				/>
			<path style="fill:#F7FAFB;" d="M204.582,479.015l0.556-0.82c0.586,0.703,1.289,0.967,2.3,0.967c1.172,0,2.27-0.571,2.27-2.124
				v-1.011c-0.513,0.718-1.377,1.26-2.373,1.26c-1.845,0-3.149-1.377-3.149-3.662c0-2.27,1.289-3.677,3.149-3.677
				c0.952,0,1.802,0.469,2.373,1.245v-1.069h1.098v6.87c0,2.344-1.641,3.076-3.369,3.076
				C206.237,480.069,205.417,479.835,204.582,479.015z M209.709,475.162v-3.091c-0.381-0.615-1.23-1.143-2.109-1.143
				c-1.421,0-2.27,1.128-2.27,2.695c0,1.553,0.849,2.695,2.27,2.695C208.478,476.319,209.328,475.778,209.709,475.162z"/>
			<path style="fill:#F7FAFB;" d="M217.413,477.198v-4.629c0-1.245-0.63-1.641-1.582-1.641c-0.865,0-1.685,0.527-2.095,1.099v5.17
				h-1.099v-7.075h1.099v1.025c0.498-0.586,1.464-1.201,2.519-1.201c1.48,0,2.256,0.747,2.256,2.285v4.966H217.413z"/>
			<path style="fill:#F7FAFB;" d="M219.932,473.654c0-2.051,1.465-3.706,3.486-3.706c2.139,0,3.398,1.67,3.398,3.794v0.279h-5.727
				c0.088,1.333,1.025,2.446,2.549,2.446c0.806,0,1.626-0.322,2.183-0.894l0.527,0.718c-0.703,0.703-1.655,1.084-2.812,1.084
				C221.441,477.374,219.932,475.865,219.932,473.654z M223.404,470.856c-1.509,0-2.256,1.274-2.314,2.358h4.643
				C225.718,472.159,225.015,470.856,223.404,470.856z"/>
			<path style="fill:#F7FAFB;" d="M233.35,477.198v-1.055c-0.527,0.718-1.392,1.23-2.388,1.23c-1.846,0-3.149-1.406-3.149-3.706
				c0-2.256,1.289-3.721,3.149-3.721c0.952,0,1.817,0.469,2.388,1.245v-3.765h1.098v9.77H233.35z M233.35,475.279v-3.208
				c-0.396-0.615-1.245-1.143-2.124-1.143c-1.421,0-2.27,1.172-2.27,2.739c0,1.567,0.849,2.724,2.27,2.724
				C232.105,476.393,232.954,475.895,233.35,475.279z"/>
			<path style="fill:#F7FAFB;" d="M239.692,477.198v-9.77h1.098v3.765c0.572-0.776,1.421-1.245,2.388-1.245
				c1.845,0,3.149,1.465,3.149,3.721c0,2.299-1.304,3.706-3.149,3.706c-0.996,0-1.86-0.513-2.388-1.23v1.055H239.692z
				 M242.9,476.393c1.436,0,2.285-1.157,2.285-2.724c0-1.568-0.85-2.739-2.285-2.739c-0.864,0-1.728,0.527-2.109,1.143v3.208
				C241.171,475.895,242.036,476.393,242.9,476.393z"/>
			<path style="fill:#F7FAFB;" d="M247.528,478.971c0.161,0.073,0.425,0.117,0.601,0.117c0.483,0,0.805-0.161,1.055-0.747
				l0.469-1.069l-2.959-7.148h1.187l2.358,5.8l2.344-5.8h1.201l-3.545,8.51c-0.425,1.025-1.143,1.421-2.08,1.435
				c-0.234,0-0.601-0.044-0.805-0.103L247.528,478.971z"/>
		</g>
	</g>
</g>
</svg>
